<svg xmlns="http://www.w3.org/2000/svg" width="96" height="96" viewBox="0 0 96 96">
    <defs>
        <linearGradient id="a" x1="46.977%" x2="58.801%" y1="53.22%" y2="12.251%">
            <stop offset="0%" stop-color="#9775F8"/>
            <stop offset="95.161%" stop-color="#22D88F"/>
        </linearGradient>
        <linearGradient id="b" x1="35.259%" x2="50.419%" y1="14.447%" y2="92.656%">
            <stop offset="0%" stop-color="#9775F8"/>
            <stop offset="21.423%" stop-color="#689CCE"/>
            <stop offset="42.298%" stop-color="#42BDAC"/>
            <stop offset="58.968%" stop-color="#2BD197"/>
            <stop offset="69.355%" stop-color="#22D88F"/>
        </linearGradient>
        <linearGradient id="c" x1="9.267%" x2="125.439%" y1="4.596%" y2="94.455%">
            <stop offset="7.527%" stop-color="#22D88F"/>
            <stop offset="72.043%" stop-color="#9775F8"/>
        </linearGradient>
        <linearGradient id="d" x1="0%" x2="94.064%" y1="50%" y2="50%">
            <stop offset="7.527%" stop-color="#22D88F"/>
            <stop offset="26.582%" stop-color="#5AB0B4"/>
            <stop offset="56.452%" stop-color="#B86CF2"/>
            <stop offset="100%" stop-color="#FF59E6"/>
        </linearGradient>
    </defs>
    <g fill="none" fill-rule="nonzero">
        <path fill="#9775F8" d="M85.986 14.278l5.856 37.591-22.261 12.957-4.294-21.314z"/>
        <path fill="url(#a)" d="M85.986 14.278L53.102 0 25.485 22.923l39.802 20.589z"/>
        <path fill="url(#b)" d="M62.062 91.843L23.68 40.099l-11.511 7.686L.796 82.008z"/>
        <path fill="url(#c)" d="M69.276 65.767L42.379 48.065 0 42.393l62.062 49.45z"/>
        <path fill="url(#d)" d="M0 .65v41.743l79.707 27.388 6.279-55.503z"/>
        <path fill="#000" d="M17.582 17.575h56.693v56.693H17.582z"/>
        <path fill="#FFF" d="M23.317 24.925h9.156c7.378 0 12.476 5.065 12.476 11.672v.067c0 6.607-5.098 11.738-12.476 11.738h-9.156V24.925zm5.165 4.662V43.74h3.99a6.69 6.69 0 0 0 7.077-7.01v-.066a6.742 6.742 0 0 0-7.076-7.077h-3.991zM45.863 36.73v-.066A12.05 12.05 0 0 1 58.17 24.523a12.89 12.89 0 0 1 9.223 3.22l-3.253 3.923a8.645 8.645 0 0 0-6.137-2.38c-3.757 0-6.741 3.32-6.741 7.31v.068c0 4.293 2.95 7.445 7.11 7.445a8.242 8.242 0 0 0 4.863-1.409v-3.353h-5.199v-4.46h10.196v10.195a15.238 15.238 0 0 1-10.028 3.722c-7.311 0-12.342-5.13-12.342-12.073zM22.795 63.628h21.26v3.543h-21.26z"/>
    </g>
</svg>
