<svg xmlns="http://www.w3.org/2000/svg" width="96" height="96" viewBox="0 0 96 96">
    <defs>
        <linearGradient id="a" x1="39.54%" x2="62.787%" y1="-57.889%" y2="96.785%">
            <stop offset="0%" stop-color="#7866FF"/>
            <stop offset="2.287%" stop-color="#7E64FE"/>
            <stop offset="19.476%" stop-color="#AA56F3"/>
            <stop offset="34.93%" stop-color="#C94CEC"/>
            <stop offset="47.959%" stop-color="#DC45E8"/>
            <stop offset="56.989%" stop-color="#E343E6"/>
            <stop offset="64.132%" stop-color="#E859BC"/>
            <stop offset="81.854%" stop-color="#F48F58"/>
            <stop offset="94.191%" stop-color="#FCB019"/>
            <stop offset="100%" stop-color="#FFBD00"/>
        </linearGradient>
        <linearGradient id="b" x1="63.685%" x2="34.2%" y1="89.572%" y2="16.242%">
            <stop offset="0%" stop-color="#7866FF"/>
            <stop offset="20.177%" stop-color="#965CF8"/>
            <stop offset="63.978%" stop-color="#E343E6"/>
            <stop offset="96.774%" stop-color="#FFBD00"/>
        </linearGradient>
        <linearGradient id="c" x1="39.312%" x2="51.728%" y1="98.725%" y2="42.903%">
            <stop offset="0%" stop-color="#E343E6"/>
            <stop offset="100%" stop-color="#7866FF"/>
        </linearGradient>
    </defs>
    <g fill="none" fill-rule="nonzero">
        <path fill="url(#a)" d="M10.464 85.476L.118 49.281l67.65 9.964-9.689 32.598z" transform="translate(2 2)"/>
        <path fill="url(#b)" d="M30.803.118l24.459 6.995L82.885 0l8.936 60.717-74.303-11.436z" transform="translate(2 2)"/>
        <path fill="url(#c)" d="M88.365 37.888L33.624 18.864.118 26.055 0 49.399 65.015 67.32l26.828-6.817z" transform="translate(2 2)"/>
        <path fill="#000" d="M19.575 19.575h56.693v56.693H19.575z"/>
        <path fill="#FFF" d="M24.89 65.633h21.26v3.543H24.89zM24.81 26.946h9.032c7.39 0 12.499 5.073 12.499 11.692v.067c0 6.62-5.108 11.76-12.5 11.76H24.81v-23.52zm5.174 4.67v14.18h3.857a6.702 6.702 0 0 0 7.09-7.024v-.067a6.755 6.755 0 0 0-7.09-7.09h-3.857zM47.703 27.006h5.54l6.144 9.88 6.138-9.88h5.54v23.363h-5.106v-15.25l-6.572 9.978h-.137l-6.506-9.879v15.151h-5.041z"/>
    </g>
</svg>
