<svg xmlns="http://www.w3.org/2000/svg" width="177" height="50" viewBox="0 0 177 50">
    <g fill="none" fill-rule="nonzero">
        <path fill="#072F54" d="M84.911 39H79.31c-.036 0-.036 0-.054-.017l-4.822-5.69-4.823 5.69c-.018.017-.036.017-.053.017H65.07c-.036 0-.053-.017-.071-.034 0-.017 0-.052.018-.069l7.11-8.431-7.022-8.346c-.017-.034-.017-.051-.017-.086.017-.017.035-.034.053-.034h5.603c.017 0 .035.017.053.034l4.237 5.073 4.309-5.073c.018-.017.035-.034.053-.034h4.557c.018 0 .053.017.07.034.019.035 0 .052-.017.086l-6.649 7.729 7.624 9.048c.018.017.018.052.018.069-.035.034-.053.034-.089.034M114.637 24.79c-2.512 0-4.217 1.498-4.72 4.088h8.543v-.176c0-2.062-1.562-3.913-3.823-3.913m8.22 6.769c-.019.017-.036.035-.054.035h-12.975c.269 2.96 2.225 4.653 5.401 4.653 1.956 0 4.038-.652 6.963-2.186.054-.035.108.018.108.07v3.914c0 .035-.018.052-.036.052-2.728 1.128-5.473 1.904-7.627 1.904-5.581 0-9.637-4-9.637-9.5s4.056-9.5 9.637-9.5c5.097 0 8.363 3.366 8.363 8.002 0 .758-.126 2.503-.144 2.556M148.5 18.706c-1.382 0-2.5-1.262-2.5-2.809 0-1.6 1.118-2.897 2.5-2.897s2.5 1.298 2.5 2.897c0 1.547-1.118 2.809-2.5 2.809M146.481 40c-.046 0-.062-.018-.062-.071V22.42c0-.036.016-.071.047-.071h4.053c.03 0 .046.035.046.07V39.93c0 .053-.03.071-.062.071h-4.022zM93.38 36.47c-.828 0-1.674-.122-2.66-.367l.018-11.048c1.145-.367 2.13-.524 3.117-.524 3.188 0 5.32 2.325 5.32 5.804 0 3.723-2.273 6.135-5.795 6.135M94.63 21c-1.303 0-2.607.227-3.98.7h-4.58c-.035 0-.07.034-.07.07V50a10.832 10.832 0 0 0 4.72-1.835v-8.583c1.127.157 2.06.262 2.96.262 6.27 0 10.32-3.723 10.32-9.492 0-5.506-3.857-9.352-9.37-9.352M137.28 35.094c-1.427.746-2.712 1.092-3.91 1.092-2.836 0-4.544-1.976-4.544-5.286 0-3.814 2.166-6.293 5.53-6.293.934 0 1.832.226 2.924.711v9.776zm0-22.257v8.927c-1.339-.38-2.519-.554-3.716-.554-5.46 0-9.564 4.039-9.564 9.412 0 5.34 3.628 9.222 8.63 9.222 1.726 0 3.347-.433 5.249-1.387V40A10.556 10.556 0 0 0 142 38.267V11c-1.391.19-3.047.659-4.72 1.837M166.28 35.005c-1.392.788-2.572 1.174-3.628 1.174-3.047 0-4.861-1.998-4.861-5.346 0-3.803 2.148-6.363 5.336-6.363.846 0 1.885.334 3.153 1v9.535zm4.72-13.55a.195.195 0 0 0-.194-.192h-3.716c-.106 0-.211.088-.211.193v.63h-.088c-1.709-.753-3.188-1.086-4.615-1.086-5.143 0-9.176 4.242-9.176 9.675 0 5.486 3.61 9.167 8.982 9.167 1.427 0 3.276-.105 5.002-2.068V40c1.216-.263 2.66-.771 4.016-1.753V21.456zM53.065 35.673H65A10.36 10.36 0 0 1 63.342 40H50.934c-1.513 0-2.77-1.143-2.916-2.568 0-.017-.018-.035-.018-.07V14.638c0-.017.018-.035.018-.053.146-1.442 1.403-2.585 2.916-2.585h14.048a10.296 10.296 0 0 1-1.677 4.362h-10.24v6.19h10.15c.036 0 .072.036.072.071v4.292c0 .035-.036.07-.073.07H53.065v8.688zM39.008 39.808c-1.061 0-1.714-.816-1.714-1.808 0-1.056.75-1.808 1.714-1.808.947 0 1.698.736 1.698 1.808s-.75 1.808-1.698 1.808m0-3.808C37.931 36 37 36.8 37 38c0 1.136.833 2 2.008 2C40.07 40 41 39.2 41 38s-.914-2-1.992-2"/>
        <path fill="#072F54" d="M38.407 37.878v-.621h.549c.283 0 .602.027.602.284 0 .31-.301.324-.638.324-.017.013-.513.013-.513.013zm1.54-.297c0-.405-.319-.581-.956-.581H38v2h.425v-.851h.407l.672.851H40l-.726-.878c.39-.027.673-.176.673-.54M175.008 24.792c-1.061 0-1.714-.816-1.714-1.808 0-1.056.75-1.808 1.714-1.808.947 0 1.698.736 1.698 1.808s-.75 1.808-1.698 1.808m0-3.792c-1.077 0-2.008.8-2.008 2 0 1.136.833 2 2.008 2 1.061 0 1.992-.8 1.992-2 0-1.216-.93-2-1.992-2"/>
        <path fill="#072F54" d="M174.39 22.865v-.608h.548c.283 0 .602.027.602.284 0 .31-.301.324-.637.324h-.514zm1.557-.284c0-.405-.319-.581-.956-.581H174v2h.425v-.851h.407l.672.851H176l-.726-.878c.372-.027.673-.176.673-.54M24.54 15.355l-.836-2.271-7.188-9.137 1.281-.305 12.365 10.187 7.276-1.983c.854-.203 1.833-.254 2.562-.254-2.277-4.696-6.476-8.56-11.991-10.425C17.103-2.546 5.094 2.896 1.216 13.304A19.016 19.016 0 0 0 .237 23l17.418-5.763 6.885-1.882zM40.832 14c-.632.396-1.562.929-2.475 1.221l-7.197 2.012-4.793 15.101-1.246.396 1.018-11.523-.562-2.391-6.741 1.892L1 24.784c1.422 6.708 6.267 12.573 13.342 15.032 10.779 3.767 22.61-1.754 26.455-12.315 1.65-4.523 1.545-9.27.035-13.501"/>
        <path fill="#FBC108" d="M24.748 18.9l.561 2.423L24.291 33l1.247-.4 4.791-15.303 7.196-2.039c.913-.296 1.843-.819 2.475-1.237a24 24 0 0 0-.755-1.847c-.737 0-1.685.035-2.527.261l-7.179 2.04L17.341 4l-1.264.314 7.074 9.393.824 2.336-6.792 1.934L0 23.903c.053.348.123.714.193 1.063L18.008 20.8l6.74-1.9z"/>
    </g>
</svg>
