<svg xmlns="http://www.w3.org/2000/svg" width="144" height="48" viewBox="0 0 144 48">
    <g fill="none" fill-rule="nonzero">
        <path fill="#EA4335" d="M62 25.5C62 32.121 56.837 37 50.5 37S39 32.121 39 25.5C39 18.832 44.163 14 50.5 14S62 18.832 62 25.5zm-5.034 0c0-4.138-2.993-6.968-6.466-6.968-3.473 0-6.466 2.83-6.466 6.968 0 4.096 2.993 6.968 6.466 6.968 3.473 0 6.466-2.877 6.466-6.968z"/>
        <path fill="#FBBC05" d="M87 25.5C87 32.121 81.837 37 75.5 37S64 32.121 64 25.5C64 18.837 69.163 14 75.5 14S87 18.832 87 25.5zm-5.034 0c0-4.138-2.993-6.968-6.466-6.968-3.473 0-6.466 2.83-6.466 6.968 0 4.096 2.993 6.968 6.466 6.968 3.473 0 6.466-2.877 6.466-6.968z"/>
        <path fill="#4285F4" d="M112 14.71v21.078C112 44.458 107.002 48 101.093 48c-5.562 0-8.91-3.806-10.172-6.919l4.388-1.868c.78 1.91 2.695 4.166 5.779 4.166 3.782 0 6.126-2.388 6.126-6.882V34.81h-.176c-1.128 1.424-3.3 2.668-6.043 2.668C95.257 37.477 90 32.363 90 25.783 90 19.156 95.257 14 100.995 14c2.737 0 4.91 1.244 6.043 2.626h.176v-1.911H112v-.006zm-4.429 11.073c0-4.134-2.696-7.157-6.126-7.157-3.477 0-6.39 3.023-6.39 7.157 0 4.092 2.913 7.072 6.39 7.072 3.43 0 6.126-2.98 6.126-7.072z"/>
        <path fill="#34A853" d="M120 1v35h-5V1z"/>
        <path fill="#EA4335" d="M139.904 29.29l3.88 2.613c-1.252 1.872-4.27 5.097-9.486 5.097C127.83 37 123 31.95 123 25.5c0-6.839 4.871-11.5 10.739-11.5 5.908 0 8.798 4.75 9.743 7.316l.518 1.306-15.22 6.367c1.165 2.308 2.977 3.485 5.518 3.485 2.546 0 4.312-1.265 5.606-3.184zm-11.945-4.137l10.174-4.268c-.56-1.436-2.243-2.436-4.225-2.436-2.54 0-6.078 2.265-5.95 6.704z"/>
        <path fill="#4285F4" d="M18.738 21.397V16.48h17.01c.166.857.252 1.871.252 2.969 0 3.69-1.035 8.252-4.372 11.503C28.383 34.244 24.236 36 18.743 36 8.561 36 0 27.92 0 18S8.561 0 18.743 0c5.633 0 9.645 2.153 12.66 4.96L27.84 8.43c-2.162-1.975-5.09-3.512-9.103-3.512-7.435 0-13.25 5.838-13.25 13.082 0 7.244 5.815 13.082 13.25 13.082 4.822 0 7.569-1.887 9.328-3.601 1.427-1.39 2.366-3.376 2.736-6.089l-12.064.005z"/>
    </g>
</svg>
