<svg xmlns="http://www.w3.org/2000/svg" width="70" height="70" viewBox="0 0 70 70">
    <path fill="#64A2DB" fill-rule="evenodd" d="M56.175 24.295h-5.57L42.8 45.711h5.571l7.804-21.416zM34.995 70c-.343 0-.69-.007-1.036-.017l7.154-19.659h9.84c1.73 0 3.628-1.327 4.218-2.95l7.759-21.315c1.272-3.491-.724-6.344-4.443-6.344H44.83L33.373 51.201h-.003l-6.498 17.846C11.464 65.387 0 51.529 0 35 0 18.946 10.811 5.414 25.553 1.292l-6.705 18.423h-.003L7.702 50.325h7.419l9.477-26.01h5.574l-9.476 26.01 7.413.003 8.831-24.269c1.27-3.491-.727-6.344-4.438-6.344h-6.235L33.425.04c.523-.027 1.047-.04 1.57-.04C54.332 0 70 15.67 70 35c0 19.326-15.669 35-35.004 35z"/>
</svg>
