<svg xmlns="http://www.w3.org/2000/svg" xmlns:xlink="http://www.w3.org/1999/xlink" width="100" height="115" viewBox="0 0 100 115">
    <defs>
        <path id="a" d="M74.442 1.63L5.235 41.582A8.505 8.505 0 0 0 1.33 45.19C-1.032 49.389.281 54.808 4.261 57.3c2.824 1.768 6.226 1.577 8.81-.183.207-.14.405-.288.595-.445L78.034 8.895c.388-.279 1.272-1.002 1.503-1.228l.016-.018a4.118 4.118 0 0 0 1.214-2.753c.108-2.23-1.527-4.138-3.641-4.243-.066 0-.124-.008-.19-.008-.942-.009-1.817.366-2.494.984"/>
        <linearGradient id="b" x1="25.553%" x2="75.01%" y1="65.083%" y2="34.52%">
            <stop offset="0%" stop-color="#FCEE39"/>
            <stop offset="100%" stop-color="#F37B3D"/>
        </linearGradient>
        <path id="d" d="M.223 7.58c0 1.794.677 3.423 1.767 4.634l.025.018c.297.322.62.618.974.88L58.621 63.38l.008-.018c.644.645 1.486 1.063 2.436 1.115 2.114.114 3.914-1.611 4.021-3.842a4.132 4.132 0 0 0-1.131-3.058l.008-.008-52.65-54.538C10.14 1.69 8.473.836 6.614.836 3.097.836.223 3.876.223 7.58"/>
        <linearGradient id="e" x1="28.055%" x2="75.394%" y1="30.809%" y2="72.267%">
            <stop offset="0%" stop-color="#EF5A6B"/>
            <stop offset="57%" stop-color="#F26F4E"/>
            <stop offset="100%" stop-color="#F37B3D"/>
        </linearGradient>
        <path id="g" d="M1.164 6.63c-1.569 4.434.124 9.313 3.815 11.7l.025.018a9.1 9.1 0 0 0 1.577.81c.33.13 37.473 16.387 37.473 16.387v-.008c1.453.688 3.212.296 4.245-1.08 1.213-1.621.95-3.982-.587-5.263-.074-.06-32.485-27.077-33.154-27.504l-.033-.026v.009A8.813 8.813 0 0 0 9.81.296C6.07.287 2.552 2.71 1.164 6.63"/>
        <linearGradient id="h" x1="75.308%" x2="31.825%" y1="66.088%" y2="38.379%">
            <stop offset="0%" stop-color="#7C59A4"/>
            <stop offset="38.52%" stop-color="#AF4C92"/>
            <stop offset="76.54%" stop-color="#DC4183"/>
            <stop offset="95.7%" stop-color="#ED3D7D"/>
            <stop offset="100%" stop-color="#ED3D7D"/>
        </linearGradient>
        <path id="j" d="M37.539 2.152L4.599 25.527c-.066.043-.132.087-.19.139l-.04.035c-1.413 1.08-2.544 2.596-3.205 4.452-1.783 5.035.644 10.646 5.417 12.528 2.99 1.176 6.193.618 8.605-1.203l.008-.008a9.252 9.252 0 0 0 1.478-1.412l28.571-27.164-.008-.017c1.495-1.238 2.46-3.154 2.46-5.306 0-3.712-2.881-6.743-6.39-6.743a6.13 6.13 0 0 0-3.766 1.324"/>
        <linearGradient id="k" x1="73.163%" x2="34.469%" y1="30.856%" y2="62.865%">
            <stop offset="0%" stop-color="#EF5A6B"/>
            <stop offset="36.4%" stop-color="#EE4E72"/>
            <stop offset="100%" stop-color="#ED3D7D"/>
        </linearGradient>
    </defs>
    <g fill="none" fill-rule="evenodd">
        <g transform="translate(18.94 55.758)">
            <mask id="c" fill="#fff">
                <use xlink:href="#a"/>
            </mask>
            <path fill="url(#b)" fill-rule="nonzero" d="M20.842 97.288l84.533-53.823-46.366-81.058-84.533 53.832z" mask="url(#c)"/>
        </g>
        <g transform="translate(34.63)">
            <mask id="f" fill="#fff">
                <use xlink:href="#d"/>
            </mask>
            <path fill="url(#e)" fill-rule="nonzero" d="M-29.727 36.94l66.704 61.603 58.117-70.037L28.39-33.106z" mask="url(#f)"/>
        </g>
        <g transform="translate(-.052 23.523)">
            <mask id="i" fill="#fff">
                <use xlink:href="#g"/>
            </mask>
            <path fill="url(#h)" fill-rule="nonzero" d="M64.822 10.376L13.6-23.374l-29.314 49.52 51.222 33.75z" mask="url(#i)"/>
        </g>
        <g transform="translate(-.052)">
            <mask id="l" fill="#fff">
                <use xlink:href="#j"/>
            </mask>
            <path fill="url(#k)" fill-rule="nonzero" d="M28.1-24.185l-48.744 42.472 39.612 50.6 48.744-42.472z" mask="url(#l)"/>
        </g>
        <path fill="#000" fill-rule="nonzero" d="M29.08 33.428h42.081v44.397h-42.08z"/>
        <path fill="#FFF" fill-rule="nonzero" d="M32.714 69.505h15.78v2.77h-15.78zM32.532 45.12l1.222-1.22c.33.427.645.671 1.082.671.47 0 .776-.34.776-1.01v-4.583h1.891v4.591c0 .906-.214 1.551-.677 2.039-.454.48-1.098.732-1.882.732-1.198 0-1.916-.523-2.412-1.22M37.941 38.978h5.516v1.699h-3.633v1.106h3.295v1.577h-3.295v1.15h3.683v1.708H37.94zM45.943 40.738h-2.048v-1.76h6.003v1.76h-2.056v5.48h-1.9zM32.714 47.908h3.518c.858 0 1.47.226 1.866.645.272.296.446.68.446 1.176v.017c0 .837-.454 1.333-1.057 1.612.834.287 1.362.784 1.362 1.769v.017c0 1.237-.958 1.995-2.6 1.995h-3.535v-7.231zm3.955 2.23c0-.4-.305-.618-.858-.618h-1.247v1.272h1.197c.578 0 .908-.21.908-.628v-.026zm-.66 2.065h-1.454v1.333h1.47c.587 0 .909-.235.909-.662v-.018c.008-.4-.281-.653-.925-.653zM39.13 47.908h3.245c1.05 0 1.776.287 2.238.775.405.427.611.976.611 1.682v.017c0 1.115-.561 1.847-1.412 2.23l1.635 2.518H43.26l-1.38-2.195h-.841v2.195h-1.9v-7.222h-.008zm3.163 3.476c.636 0 1.015-.331 1.015-.854v-.017c0-.575-.404-.871-1.032-.871h-1.255v1.75h1.272v-.008z"/>
        <path fill="#FFF" fill-rule="nonzero" d="M47.437 47.856h1.833l2.924 7.283h-2.04l-.495-1.298h-2.651l-.487 1.298h-1.99l2.906-7.283zm1.668 4.425l-.768-2.047-.776 2.047h1.544zM52.417 47.908h1.899v7.24h-1.9zM54.786 47.908h1.768l2.824 3.825v-3.825h1.882v7.24H59.6l-2.94-3.973v3.973h-1.874zM61.376 54.067l1.057-1.333c.685.567 1.429.872 2.221.872.52 0 .793-.183.793-.497v-.017c0-.314-.223-.462-1.164-.706-1.462-.349-2.585-.784-2.585-2.265v-.018c0-1.341 1.007-2.317 2.65-2.317 1.165 0 2.082.331 2.825.958l-.95 1.412c-.627-.48-1.313-.715-1.916-.715-.462 0-.685.2-.685.462v.017c0 .332.24.48 1.197.706 1.57.357 2.552.897 2.552 2.257v.017c0 1.481-1.106 2.361-2.775 2.361-1.222.009-2.361-.392-3.22-1.194"/>
    </g>
</svg>
