<svg xmlns="http://www.w3.org/2000/svg" xmlns:xlink="http://www.w3.org/1999/xlink" width="22" height="22" viewBox="0 0 22 22">
    <defs>
        <path id="a" d="M0 0h21.842v21.842H0z"/>
    </defs>
    <g fill="none" fill-rule="evenodd" opacity=".7">
        <mask id="b" fill="#fff">
            <use xlink:href="#a"/>
        </mask>
        <path fill="#FFF" d="M19.342 21.842H2.5a2.5 2.5 0 0 1-2.5-2.5V2.5A2.5 2.5 0 0 1 2.5 0h16.842a2.5 2.5 0 0 1 2.5 2.5v16.843a2.5 2.5 0 0 1-2.5 2.5zM2.93 19.102h3.556v-10.7H2.93v10.7zm1.778-12.16c1.24 0 2.012-.823 2.012-1.85-.023-1.048-.773-1.848-1.99-1.848-1.215 0-2.01.8-2.01 1.848 0 1.027.771 1.85 1.965 1.85h.023zm14.602 12.16v-6.134c0-3.288-1.754-4.817-4.094-4.817-1.888 0-2.734 1.039-3.205 1.767V8.402H8.454c.048 1.004 0 10.7 0 10.7h3.557v-5.976c0-.319.023-.638.117-.866.257-.64.842-1.301 1.824-1.301 1.288 0 1.802.982 1.802 2.42v5.724h3.556z" mask="url(#b)"/>
    </g>
</svg>
