<svg xmlns="http://www.w3.org/2000/svg" width="100" height="100" viewBox="0 0 100 100">
    <defs>
        <linearGradient id="a" x1="-46.663%" x2="90.517%" y1="50%" y2="50%">
            <stop offset="0%" stop-color="#21D789"/>
            <stop offset="100%" stop-color="#07C3F2"/>
        </linearGradient>
        <linearGradient id="b" x1="-53.693%" x2="133.841%" y1="105.475%" y2="-7.572%">
            <stop offset="1.075%" stop-color="#FCF84A"/>
            <stop offset="11.157%" stop-color="#A7EB62"/>
            <stop offset="20.564%" stop-color="#5FE077"/>
            <stop offset="27.27%" stop-color="#32DA84"/>
            <stop offset="30.645%" stop-color="#21D789"/>
            <stop offset="57.683%" stop-color="#21D789"/>
            <stop offset="59.677%" stop-color="#21D789"/>
            <stop offset="68.6%" stop-color="#20D68C"/>
            <stop offset="76.27%" stop-color="#1ED497"/>
            <stop offset="83.478%" stop-color="#19D1A9"/>
            <stop offset="90.403%" stop-color="#13CCC2"/>
            <stop offset="97.068%" stop-color="#0BC6E1"/>
            <stop offset="100%" stop-color="#07C3F2"/>
        </linearGradient>
        <linearGradient id="c" x1="30.694%" x2="77.76%" y1="115.976%" y2="22.263%">
            <stop offset="0%" stop-color="#21D789"/>
            <stop offset="16.381%" stop-color="#24D788"/>
            <stop offset="30.469%" stop-color="#2FD886"/>
            <stop offset="43.709%" stop-color="#41DA82"/>
            <stop offset="56.442%" stop-color="#5ADC7D"/>
            <stop offset="68.808%" stop-color="#7AE077"/>
            <stop offset="80.899%" stop-color="#A1E36E"/>
            <stop offset="92.544%" stop-color="#CFE865"/>
            <stop offset="100%" stop-color="#F1EB5E"/>
        </linearGradient>
        <linearGradient id="d" x1="-9.715%" x2="118.642%" y1="201.699%" y2="-16.898%">
            <stop offset="0%" stop-color="#21D789"/>
            <stop offset="6.081%" stop-color="#24D788"/>
            <stop offset="11.308%" stop-color="#2FD886"/>
            <stop offset="16.22%" stop-color="#41DA82"/>
            <stop offset="20.939%" stop-color="#5ADD7D"/>
            <stop offset="25.483%" stop-color="#79E077"/>
            <stop offset="25.806%" stop-color="#7CE076"/>
            <stop offset="49.857%" stop-color="#8CE173"/>
            <stop offset="92.473%" stop-color="#B2E56B"/>
        </linearGradient>
        <linearGradient id="e" x1="111.829%" x2="-14.179%" y1="50.478%" y2="49.369%">
            <stop offset="38.71%" stop-color="#FCF84A"/>
            <stop offset="53.579%" stop-color="#ECF451"/>
            <stop offset="82.588%" stop-color="#C2E964"/>
            <stop offset="92.473%" stop-color="#B2E56B"/>
        </linearGradient>
    </defs>
    <g fill="none" fill-rule="nonzero">
        <path fill="url(#a)" d="M64.391 14.494l26.843 22.323-9.67 19.66-16.173-4.483h-14z" transform="translate(4 4)"/>
        <path fill="url(#b)" d="M37.361 28.989l-5.2 27.488-.497 9.342-13.097 5.671L0 73.492l5.637-59.388L39.282 0l20.731 13.604z" transform="translate(4 4)"/>
        <path fill="url(#c)" d="M37.361 28.989l2.521 52.966-8.384 9.888L0 73.492l25.862-38.535z" transform="translate(4 4)"/>
        <path fill="url(#d)" d="M72.014 25.124H40.19L68.308 0z" transform="translate(4 4)"/>
        <path fill="url(#e)" d="M91.843 82.167l-28.017 9.509-37.301-10.51 10.836-52.177 4.321-3.865 22.709-2.13L62.334 45.8l18.07-7.006z" transform="translate(4 4)"/>
        <path fill="#000" d="M21.582 21.64h56.693v56.692H21.582z"/>
        <path fill="#FFF" d="M26.912 67.662h21.26v3.543h-21.26zM26.762 29.048h9.598c5.603 0 8.993 3.323 8.993 8.12v.068c0 5.436-4.229 8.255-9.497 8.255h-3.927v7.047h-5.167v-23.49zm9.262 11.846c2.584 0 4.094-1.544 4.094-3.558v-.067c0-2.315-1.61-3.556-4.195-3.556h-3.994v7.18h4.095zM47.368 40.86v-.067a11.939 11.939 0 0 1 12.25-12.148 12.12 12.12 0 0 1 9.26 3.624L65.59 36.06a8.668 8.668 0 0 0-6.007-2.65c-3.96 0-6.812 3.289-6.812 7.315v.067c0 4.027 2.785 7.382 6.812 7.382 2.685 0 4.33-1.073 6.175-2.751l3.288 3.323a12.01 12.01 0 0 1-9.63 4.194A11.857 11.857 0 0 1 47.367 40.86"/>
    </g>
</svg>
