<svg xmlns="http://www.w3.org/2000/svg" width="96" height="96" viewBox="0 0 96 96">
    <defs>
        <linearGradient id="a" x1="67.667%" x2="37.123%" y1="100.719%" y2="13.727%">
            <stop offset="17.204%" stop-color="#FF1F51"/>
            <stop offset="27.98%" stop-color="#FF3648"/>
            <stop offset="46.814%" stop-color="#FF593B"/>
            <stop offset="64.641%" stop-color="#FF7231"/>
            <stop offset="80.878%" stop-color="#FF812B"/>
            <stop offset="94.086%" stop-color="#FF8629"/>
        </linearGradient>
        <linearGradient id="b" x1="61.474%" x2="43.572%" y1="22.633%" y2="91.78%">
            <stop offset="2.151%" stop-color="#9039D0"/>
            <stop offset="62.903%" stop-color="#FF1F51"/>
        </linearGradient>
        <linearGradient id="c" x1=".524%" x2="81.891%" y1="8.012%" y2="97.527%">
            <stop offset="10.753%" stop-color="#9039D0"/>
            <stop offset="38.71%" stop-color="#FF1F51"/>
            <stop offset="62.903%" stop-color="#FF1F51"/>
            <stop offset="65.993%" stop-color="#FF3648"/>
            <stop offset="71.393%" stop-color="#FF593B"/>
            <stop offset="76.504%" stop-color="#FF7231"/>
            <stop offset="81.159%" stop-color="#FF812B"/>
            <stop offset="84.946%" stop-color="#FF8629"/>
        </linearGradient>
    </defs>
    <g fill="none" fill-rule="nonzero">
        <path fill="url(#a)" d="M76.38 0L50.097 9.417 29.393 0 9.098 51.058l23.322-9.331-.349 25.892 49.867.842 9.905-50.51z" transform="translate(1 1)"/>
        <path fill="url(#b)" d="M66.662 29.76L33.629 8.083 6.897 24.543l58.479 22.531z" transform="translate(1 1)"/>
        <path fill="url(#c)" d="M38.229 89.447l34.324-4.57-10.926-21.03 7.248-8.762.749-5.325L33.616 8.01 0 16.263l.034 48.216L19.36 91.843l18.761-2.382.091-.012.017-.002z" transform="translate(1 1)"/>
        <path fill="#000" d="M18.582 18.547h56.693V75.24H18.582z"/>
        <path fill="#FFF" d="M23.897 64.61h21.26v3.543h-21.26zM46.405 25.894h5.586l6.195 9.962 6.19-9.962h5.586v23.558h-5.149V34.075l-6.627 10.062h-.138l-6.56-9.962v15.277h-5.083zM23.894 25.878h10.754c2.98 0 5.266.796 6.857 2.386a7.272 7.272 0 0 1 2.016 5.377v.068a7.376 7.376 0 0 1-1.395 4.655 8.077 8.077 0 0 1-3.647 2.638l5.747 8.402h-6.049l-4.869-7.226H29.04l.03 7.226h-5.176V25.878zm10.418 11.427a4.298 4.298 0 0 0 2.941-.907 3.073 3.073 0 0 0 1.025-2.42v-.067a3.003 3.003 0 0 0-1.077-2.521 4.754 4.754 0 0 0-2.99-.84H29.07v6.755h5.242z"/>
    </g>
</svg>
