<svg xmlns="http://www.w3.org/2000/svg" width="110" height="77" viewBox="0 0 110 77">
    <g fill="none" fill-rule="nonzero">
        <path fill="#00A1E0" d="M45.775 8.398c3.548-3.697 8.487-5.99 13.95-5.99 7.26 0 13.596 4.05 16.97 10.061a23.45 23.45 0 0 1 9.59-2.039C99.383 10.43 110 21.141 110 34.354S99.382 58.278 86.286 58.278c-1.569.001-3.134-.155-4.671-.465-2.971 5.3-8.633 8.88-15.13 8.88-2.721 0-5.294-.628-7.585-1.745C55.888 72.032 48.872 77 40.694 77c-8.517 0-15.775-5.39-18.56-12.947a18.142 18.142 0 0 1-3.774.393C8.22 64.446 0 56.141 0 45.894a18.582 18.582 0 0 1 9.18-16.07 21.24 21.24 0 0 1-1.757-8.487C7.423 9.553 16.989 0 28.788 0c6.928 0 13.084 3.294 16.987 8.398"/>
        <path fill="#FFF" d="M16.025 39.653c-.07.174.025.21.047.24.207.145.418.25.63.366 1.124.573 2.185.741 3.295.741 2.26 0 3.664-1.157 3.664-3.019v-.036c0-1.722-1.584-2.347-3.07-2.798l-.194-.06c-1.12-.351-2.088-.653-2.088-1.363v-.037c0-.607.565-1.055 1.441-1.055.974 0 2.13.312 2.873.707 0 0 .218.136.298-.068.044-.108.421-1.084.46-1.19.043-.114-.033-.2-.11-.244-.849-.497-2.023-.837-3.238-.837l-.226.001c-2.07 0-3.513 1.203-3.513 2.926v.036c0 1.816 1.593 2.405 3.086 2.816l.24.071c1.088.322 2.025.598 2.025 1.335v.036c0 .674-.609 1.175-1.592 1.175a5.51 5.51 0 0 1-2.912-.806c-.158-.09-.25-.154-.373-.225-.065-.04-.226-.107-.297.098l-.446 1.19zm33.094 0c-.07.174.025.21.047.24.207.145.418.25.63.366 1.124.573 2.185.741 3.295.741 2.26 0 3.664-1.157 3.664-3.019v-.036c0-1.722-1.584-2.347-3.07-2.798l-.194-.06c-1.12-.351-2.088-.653-2.088-1.363v-.037c0-.607.565-1.055 1.441-1.055.973 0 2.129.312 2.873.707 0 0 .218.136.298-.068.044-.108.421-1.084.46-1.19.043-.114-.033-.2-.11-.244-.849-.497-2.023-.837-3.238-.837l-.226.001c-2.07 0-3.514 1.203-3.514 2.926v.036c0 1.816 1.594 2.405 3.087 2.816l.24.071c1.088.322 2.027.598 2.027 1.335v.036c0 .674-.611 1.175-1.594 1.175a5.51 5.51 0 0 1-2.912-.806c-.158-.09-.252-.151-.372-.225-.04-.026-.232-.097-.298.098l-.446 1.19zm22.592-3.647c0 1.052-.204 1.881-.605 2.467-.398.58-.999.863-1.837.863-.84 0-1.438-.281-1.829-.863-.396-.584-.596-1.415-.596-2.467 0-1.051.2-1.879.596-2.459.39-.573.99-.853 1.829-.853.838 0 1.44.28 1.838.853.4.58.604 1.408.604 2.459m1.888-1.951a4.316 4.316 0 0 0-.86-1.577 4.138 4.138 0 0 0-1.448-1.06c-.576-.258-1.258-.39-2.022-.39-.766 0-1.448.132-2.024.39a4.16 4.16 0 0 0-1.45 1.06 4.386 4.386 0 0 0-.859 1.577 6.655 6.655 0 0 0-.276 1.95c0 .697.092 1.354.276 1.952a4.34 4.34 0 0 0 .86 1.576c.385.444.873.8 1.45 1.051.577.253 1.257.381 2.023.381.764 0 1.444-.128 2.022-.38a4.04 4.04 0 0 0 1.449-1.052c.384-.442.673-.974.859-1.576.185-.6.277-1.257.277-1.951 0-.695-.092-1.352-.277-1.951m15.495 5c-.063-.177-.24-.11-.24-.11a4.46 4.46 0 0 1-.878.24 7.105 7.105 0 0 1-1.034.072c-.914 0-1.64-.261-2.159-.778-.521-.516-.813-1.351-.81-2.48.003-1.03.26-1.803.724-2.391.46-.586 1.16-.887 2.094-.887.779 0 1.372.086 1.994.275 0 0 .149.062.22-.125.164-.441.287-.757.463-1.242.05-.137-.073-.196-.117-.213a7.601 7.601 0 0 0-1.259-.305 9.816 9.816 0 0 0-1.416-.092c-.793 0-1.499.13-2.103.39a4.35 4.35 0 0 0-1.52 1.058 4.46 4.46 0 0 0-.918 1.577 6.058 6.058 0 0 0-.308 1.954c0 1.506.422 2.723 1.256 3.614.835.894 2.09 1.348 3.725 1.348.967 0 1.96-.188 2.672-.459 0 0 .137-.063.077-.216l-.463-1.23zm3.302-4.057c.09-.585.257-1.071.516-1.45.391-.576.988-.891 1.826-.891.838 0 1.392.317 1.79.89.263.38.378.887.424 1.45h-4.556zm6.353-1.286c-.16-.581-.557-1.169-.818-1.437-.411-.426-.813-.724-1.212-.89a4.83 4.83 0 0 0-1.83-.356c-.798 0-1.522.128-2.109.394a4.182 4.182 0 0 0-1.47 1.08 4.37 4.37 0 0 0-.866 1.594 6.654 6.654 0 0 0-.28 1.962c0 .708.097 1.368.29 1.962.194.598.505 1.125.926 1.561.42.44.96.784 1.606 1.024.642.239 1.422.362 2.319.36 1.844-.005 2.816-.4 3.216-.614.071-.038.139-.104.054-.294l-.418-1.125c-.063-.168-.24-.106-.24-.106-.457.163-1.107.456-2.622.453-.99-.001-1.725-.282-2.185-.722-.473-.45-.703-1.111-.744-2.045l6.387.007s.168-.003.186-.16c.006-.067.22-1.263-.19-2.648m-57.51 1.286c.091-.585.257-1.071.516-1.45.391-.576.988-.891 1.826-.891.838 0 1.393.317 1.791.89.262.38.377.887.423 1.45h-4.556zm6.352-1.286a3.777 3.777 0 0 0-.817-1.437c-.411-.426-.813-.724-1.212-.89a4.83 4.83 0 0 0-1.83-.356c-.796 0-1.521.128-2.108.394a4.181 4.181 0 0 0-1.471 1.08 4.37 4.37 0 0 0-.865 1.594 6.705 6.705 0 0 0-.281 1.962c0 .708.097 1.368.29 1.962a4.02 4.02 0 0 0 .926 1.561c.42.44.96.784 1.606 1.024.643.239 1.423.362 2.32.36 1.844-.005 2.815-.4 3.216-.614.07-.038.138-.104.053-.294l-.416-1.125c-.064-.168-.242-.106-.242-.106-.456.163-1.105.456-2.623.453-.989-.001-1.723-.282-2.183-.722-.473-.45-.704-1.111-.745-2.045l6.388.007s.168-.003.185-.16c.006-.067.22-1.263-.191-2.648m-20.16 5.309c-.249-.192-.283-.24-.368-.364-.126-.189-.19-.458-.19-.799 0-.54.185-.929.57-1.19-.005.002.55-.46 1.852-.444.916.012 1.733.142 1.733.142v2.794h.002s-.812.167-1.725.22c-1.3.076-1.878-.36-1.873-.36m2.541-4.317a14.73 14.73 0 0 0-.996-.028c-.548 0-1.077.066-1.573.195-.5.128-.949.329-1.335.594a3.003 3.003 0 0 0-.926 1.014c-.226.404-.34.882-.34 1.416 0 .544.097 1.017.291 1.403.195.388.476.711.834.96.355.25.793.433 1.301.543.501.11 1.07.166 1.691.166.655 0 1.308-.051 1.94-.156a42.316 42.316 0 0 0 1.61-.299c.15-.034.298-.071.447-.11.159-.038.146-.2.146-.2l-.003-5.62c0-1.232-.342-2.146-1.016-2.712-.67-.565-1.658-.85-2.934-.85-.479 0-1.25.063-1.711.152 0 0-1.396.26-1.97.692 0 0-.126.075-.057.245l.452 1.168c.057.151.21.1.21.1s.048-.018.104-.05c1.23-.643 2.784-.623 2.784-.623.69 0 1.221.132 1.579.397.348.256.526.644.526 1.463v.26c-.55-.076-1.054-.12-1.054-.12m51.52-3.166a.164.164 0 0 0-.095-.22c-.109-.04-.652-.151-1.071-.177-.802-.047-1.248.083-1.647.255-.395.173-.835.45-1.08.766v-.747a.182.182 0 0 0-.184-.188H75.78a.182.182 0 0 0-.183.188v9.164c0 .103.087.188.194.188h1.678a.19.19 0 0 0 .193-.188V36c0-.615.071-1.228.212-1.613.139-.38.327-.686.56-.905.233-.217.498-.37.789-.456a3.19 3.19 0 0 1 .857-.116c.334 0 .702.083.702.083.122.014.191-.059.232-.166.11-.28.42-1.122.48-1.29"/>
        <path fill="#FFF" d="M65.87 27.219a5.52 5.52 0 0 0-.637-.152 5.043 5.043 0 0 0-.876-.067c-1.166 0-2.085.33-2.73.98-.64.648-1.076 1.633-1.295 2.929l-.08.436H58.79s-.177-.007-.215.187l-.24 1.344c-.017.126.039.207.21.207h1.424l-1.445 8.077c-.112.65-.242 1.185-.386 1.591-.141.4-.28.7-.45.919-.165.21-.32.365-.59.455-.221.075-.478.11-.758.11a2.85 2.85 0 0 1-.516-.058 1.525 1.525 0 0 1-.349-.112s-.166-.064-.233.103c-.052.138-.432 1.183-.478 1.312-.044.128.019.228.1.258.19.067.33.111.589.173a3.9 3.9 0 0 0 .944.089c.592 0 1.134-.084 1.582-.246.45-.163.843-.447 1.191-.831.376-.416.612-.85.837-1.445.223-.587.415-1.317.567-2.167l1.452-8.228h2.122s.18.007.216-.188l.24-1.342c.016-.129-.037-.208-.21-.208h-2.06c.01-.046.104-.773.34-1.456.101-.29.291-.527.451-.689.159-.158.34-.271.54-.336.205-.067.438-.098.693-.098.193 0 .384.022.529.052.2.043.277.065.33.08.21.064.238.003.28-.099l.492-1.355c.05-.146-.074-.208-.119-.225M37.08 41.178c0 .108-.078.195-.186.195h-1.71c-.107 0-.183-.087-.183-.195V27.403c0-.108.076-.195.184-.195h1.709c.108 0 .185.087.185.195v13.775z"/>
    </g>
</svg>
