<svg xmlns="http://www.w3.org/2000/svg" width="160" height="53" viewBox="0 0 160 53">
    <g fill="none" fill-rule="nonzero">
        <path fill="#034EA2" d="M159.9 12.62c2.18 12.462-31.824 28.78-75.958 36.448-44.127 7.668-81.667 3.778-83.843-8.69C-2.077 27.916 31.937 11.6 76.064 3.936c44.131-7.675 81.664-3.781 83.837 8.684z"/>
        <g fill="#FFF">
            <path d="M117.886 30.33l-.225-13.389h4.09v16.877h-5.88l-4.082-13.85h-.09l.229 13.85h-4.066V16.941H114l3.798 13.39zM43.54 18.523l-2.262 15.472h-4.462l3.062-17.054h7.349l3.051 17.054h-4.445l-2.2-15.472zM62.806 29.979l2.04-13.038h6.739l.356 17.054h-4.128l-.11-15.332h-.085l-2.761 15.332h-4.191L57.9 18.663h-.089l-.102 15.332H53.57l.367-17.054h6.74l2.039 13.038zM29.86 29.185c.163.412.113.944.037 1.264-.139.566-.512 1.146-1.608 1.146-1.037 0-1.665-.614-1.665-1.548v-1.65h-4.432l-.004 1.32c0 3.801 2.9 4.95 6.008 4.95 2.99 0 5.45-1.053 5.84-3.897.201-1.473.049-2.438-.017-2.803-.697-3.57-6.969-4.637-7.435-6.631a2.312 2.312 0 0 1-.016-.9c.116-.542.476-1.142 1.51-1.142.964 0 1.535.617 1.535 1.547v1.054h4.119v-1.197c0-3.716-3.23-4.296-5.569-4.296-2.94 0-5.34 1.003-5.78 3.778-.119.767-.135 1.45.037 2.305.723 3.481 6.589 4.49 7.44 6.7zM83.58 29.154c.162.409.11.927.037 1.248-.136.566-.506 1.135-1.596 1.135-1.02 0-1.644-.614-1.644-1.527l-.004-1.637h-4.386l-.006 1.303c0 3.764 2.873 4.899 5.948 4.899 2.956 0 5.393-1.04 5.78-3.856.201-1.463.06-2.414-.014-2.772-.693-3.536-6.899-4.593-7.361-6.57a2.224 2.224 0 0 1-.017-.883c.119-.55.472-1.132 1.496-1.132.958 0 1.516.6 1.516 1.527v1.044h4.089v-1.187c0-3.675-3.204-4.252-5.522-4.252-2.907 0-5.288.99-5.717 3.747a6.034 6.034 0 0 0 .04 2.278c.71 3.447 6.519 4.45 7.361 6.635zM97.455 31.445c1.146 0 1.503-.818 1.582-1.238.033-.184.043-.43.04-.65V16.933h4.178v12.233c.01.314-.02.959-.037 1.119-.294 3.184-2.731 4.217-5.766 4.217-3.039 0-5.48-1.033-5.77-4.217-.013-.16-.043-.808-.036-1.119V16.934h4.174v12.619a4 4 0 0 0 .04.651c.092.42.44 1.241 1.595 1.241zM131.92 31.264c1.195 0 1.614-.78 1.69-1.234.03-.194.04-.433.037-.648v-2.475h-1.695v-2.489h5.86v4.579c-.004.32-.01.556-.06 1.125-.274 3.103-2.883 4.21-5.81 4.21-2.932 0-5.535-1.107-5.816-4.21a15.56 15.56 0 0 1-.06-1.125l.004-7.18c0-.304.037-.84.07-1.126.366-3.187 2.87-4.214 5.803-4.214 2.93 0 5.495 1.02 5.8 4.214.052.543.035 1.126.035 1.126v.569h-4.164v-.955a4.399 4.399 0 0 0-.053-.647c-.07-.379-.387-1.245-1.648-1.245-1.206 0-1.556.818-1.645 1.245-.05.225-.07.528-.07.804v7.801c-.003.215.01.454.044.648.066.447.482 1.227 1.677 1.227z"/>
        </g>
    </g>
</svg>
