<svg xmlns="http://www.w3.org/2000/svg" width="57" height="46" viewBox="0 0 57 46">
    <g fill="none" fill-rule="evenodd">
        <path d="M-17-22h90v90h-90z"/>
        <path fill="#1DA1F2" fill-rule="nonzero" d="M17.925 46C39.435 46 51.2 28.301 51.2 12.953c0-.503 0-1.004-.035-1.502A23.705 23.705 0 0 0 57 5.44a23.468 23.468 0 0 1-6.717 1.828A11.67 11.67 0 0 0 55.425.842a23.534 23.534 0 0 1-7.426 2.82c-3.625-3.829-9.386-4.766-14.05-2.286-4.666 2.48-7.076 7.76-5.88 12.879-9.403-.469-18.164-4.88-24.102-12.136C.863 7.427 2.45 14.216 7.587 17.624A11.668 11.668 0 0 1 2.28 16.17v.148c.002 5.528 3.926 10.29 9.382 11.385a11.754 11.754 0 0 1-5.28.2c1.532 4.73 5.922 7.972 10.925 8.065A23.569 23.569 0 0 1 0 40.783a33.274 33.274 0 0 0 17.925 5.208"/>
    </g>
</svg>
