<svg xmlns="http://www.w3.org/2000/svg" xmlns:xlink="http://www.w3.org/1999/xlink" width="22" height="20" viewBox="0 0 22 20">
    <defs>
        <path id="a" d="M11 0H0v20h22V0z"/>
    </defs>
    <g fill="none" fill-rule="evenodd" opacity=".7">
        <mask id="b" fill="#fff">
            <use xlink:href="#a"/>
        </mask>
        <path fill="#FFF" d="M22.957 2.374a9.125 9.125 0 0 1-2.7.805c.975-.604 1.726-1.609 2.063-2.776-.901.564-1.914 1.005-3.002 1.207C18.454.643 17.255 0 15.867 0c-2.587 0-4.725 2.253-4.725 5.07 0 .403.036.765.111 1.168-3.862-.242-7.315-2.254-9.64-5.313A5.269 5.269 0 0 0 .977 3.46c0 1.771.824 3.302 2.1 4.225-.788-.04-1.5-.24-2.139-.643v.081c0 2.454 1.612 4.467 3.788 4.95-.412.12-.824.16-1.238.16-.298 0-.6-.04-.9-.08.602 2.012 2.325 3.461 4.389 3.501-1.612 1.368-3.639 2.172-5.852 2.172-.374 0-.75-.04-1.125-.08A12.54 12.54 0 0 0 7.202 20c8.665 0 13.428-7.687 13.428-14.366V4.99a10.66 10.66 0 0 0 2.327-2.615" mask="url(#b)"/>
    </g>
</svg>
