<svg xmlns="http://www.w3.org/2000/svg" width="96" height="96" viewBox="0 0 96 96">
    <defs>
        <linearGradient id="a" x1="43.776%" x2="70.107%" y1="16.767%" y2="89.726%">
            <stop offset="0%" stop-color="#00CDD7"/>
            <stop offset="100%" stop-color="#2086D7"/>
        </linearGradient>
        <linearGradient id="b" x1="26.235%" x2="55.911%" y1="19.183%" y2="54.01%">
            <stop offset="0%" stop-color="#FFF045"/>
            <stop offset="100%" stop-color="#00CDD7"/>
        </linearGradient>
        <linearGradient id="c" x1="8014.168%" x2="8542.208%" y1="853.362%" y2="1621.423%">
            <stop offset="28.495%" stop-color="#00CDD7"/>
            <stop offset="94.086%" stop-color="#2086D7"/>
        </linearGradient>
    </defs>
    <g fill="none" fill-rule="nonzero">
        <path fill="url(#a)" d="M12.377 83.003L0 9.627 22.897.12l14.616 8.694 13.39-7.231L78.811 12.3 63.156 91.843z" transform="translate(2 2)"/>
        <path fill="url(#b)" d="M91.842 31.101L79.994 1.822 58.483 0 25.29 31.895l8.935 41.108 16.679 11.701 40.938-24.292-10.041-18.831z" transform="translate(2 2)"/>
        <path fill="url(#c)" d="M73.443 26.735l8.358 14.846 10.041-10.48-7.377-18.23z" transform="translate(2 2)"/>
        <path fill="#000" d="M19.582 19.575h56.693v56.693H19.582z"/>
        <path fill="#FFF" d="M24.925 65.604h21.26v3.543h-21.26zM52.796 47.019l3.01-3.673a10.511 10.511 0 0 0 6.904 2.864c2.086 0 3.341-.842 3.341-2.227v-.067c0-1.313-.793-1.989-4.661-2.997-4.661-1.213-7.671-2.532-7.671-7.214v-.072c0-4.277 3.374-7.114 8.1-7.114a13.223 13.223 0 0 1 8.595 3.003l-2.646 3.912a10.708 10.708 0 0 0-6.014-2.327c-1.95 0-2.977.908-2.977 2.055v.067c0 1.551.994 2.06 4.993 3.102 4.693 1.247 7.339 2.97 7.339 7.081v.067c0 4.687-3.504 7.313-8.497 7.313a14.563 14.563 0 0 1-9.816-3.773M48.197 26.905L44.7 40.623l-4.007-13.718h-3.982l-4.008 13.718-3.496-13.718h-5.48l6.714 23.523h4.413l3.848-13.61 3.801 13.61h4.465l6.709-23.523z"/>
    </g>
</svg>
