<svg xmlns="http://www.w3.org/2000/svg" xmlns:xlink="http://www.w3.org/1999/xlink" width="24" height="17" viewBox="0 0 24 17">
    <defs>
        <path id="a" d="M0 0h24v16.91H0z"/>
    </defs>
    <g fill="none" fill-rule="evenodd" opacity=".7">
        <mask id="b" fill="#fff">
            <use xlink:href="#a"/>
        </mask>
        <path fill="#FFF" d="M9.545 12.023V4.886l6.273 3.569-6.273 3.568zM23.498 2.64A3.015 3.015 0 0 0 21.377.505C19.505 0 12 0 12 0S4.495 0 2.623.505A3.015 3.015 0 0 0 .502 2.64C0 4.524 0 8.455 0 8.455s0 3.93.502 5.814a3.016 3.016 0 0 0 2.121 2.135c1.872.505 9.377.505 9.377.505s7.505 0 9.377-.505a3.016 3.016 0 0 0 2.121-2.135C24 12.385 24 8.455 24 8.455s0-3.93-.502-5.815z" mask="url(#b)"/>
    </g>
</svg>
